<svg xmlns="http://www.w3.org/2000/svg" version="1.1" xmlns:xlink="http://www.w3.org/1999/xlink" xmlns:svgjs="http://svgjs.com/svgjs" width="512" height="512" x="0" y="0" viewBox="0 0 512 512" style="enable-background:new 0 0 512 512" xml:space="preserve" class=""><g>
<path style="" d="M468.434,149.934h-78.607c-0.299-30.672-25.342-55.531-56.085-55.531H178.255
	c-30.741,0-55.786,24.859-56.085,55.531H43.566C19.544,149.934,0,169.478,0,193.5v247.169c0,24.021,19.544,43.564,43.566,43.564
	h424.87c24.021,0,43.564-19.544,43.564-43.566V193.5C512,169.478,492.456,149.934,468.434,149.934z M317.085,194.36H194.915
	c-15.003,0-27.21-12.206-27.21-27.21c0-14.129,11.031-26.041,25.111-27.119l118.635-0.592l7.731,0.592
	c14.082,1.078,25.112,12.99,25.112,27.119C344.295,182.154,332.088,194.36,317.085,194.36z" fill="#ece5dd" data-original="#ece5dd" class=""></path>
<path style="" d="M468.434,149.934h-33.921c24.022,0,43.566,19.544,43.566,43.566v247.169
	c0,24.022-19.544,43.566-43.566,43.566h33.921C492.456,484.234,512,464.69,512,440.668V193.5
	C512,169.478,492.456,149.934,468.434,149.934z" fill="#d9cbbd" data-original="#d9cbbd"></path>
<path style="" d="M199.913,154.369V49.882c0-12.215,9.902-22.117,22.117-22.117h68.267
	c12.034,0,21.789,9.756,21.789,21.789v104.813c0,4.298-3.484,7.782-7.782,7.782h-96.608
	C203.397,162.151,199.913,158.667,199.913,154.369z" fill="#ed8800" data-original="#ed8800"></path>
<path style="" d="M290.297,27.765h-32.208c12.034,0,21.789,9.756,21.789,21.789v104.813
	c0,4.298-3.484,7.783-7.783,7.783h32.208c4.298,0,7.783-3.484,7.783-7.783V49.555C312.087,37.521,302.331,27.765,290.297,27.765z" fill="#cc7400" data-original="#cc7400"></path>
<path style="" d="M257.913,54.093c-11.857-1.174-21.741,8.71-20.566,20.567c0.869,8.774,7.967,15.871,16.741,16.741
	c11.857,1.174,21.741-8.71,20.566-20.567C273.785,62.058,266.686,54.961,257.913,54.093z" fill="#ffffff" data-original="#ffffff"></path>
<g>
	<path style="" d="M137.507,317.444c-21.558,2.283-39.641-15.801-37.355-37.359
		c1.666-15.708,14.294-28.335,30.003-29.999c21.558-2.283,39.641,15.801,37.355,37.359
		C165.844,303.153,153.215,315.78,137.507,317.444z" fill="#ffb656" data-original="#ffb656" class=""></path>
	<path style="" d="M133.831,395.383c-19.673,0-38.496-7.36-53.003-20.723l-3.241-2.985l0.416-4.388
		c2.743-28.937,26.744-50.758,55.827-50.758s53.084,21.821,55.828,50.757l0.416,4.388l-3.241,2.985
		C172.326,388.023,153.503,395.383,133.831,395.383z" fill="#ffb656" data-original="#ffb656" class=""></path>
</g>
<g>
	<path style="" d="M256,247.67h132.927c4.561,0,8.539-3.515,8.675-8.074c0.141-4.717-3.641-8.585-8.326-8.585H256.349
		c-4.561,0-8.539,3.515-8.675,8.074C247.534,243.803,251.315,247.67,256,247.67z" fill="#bababa" data-original="#bababa"></path>
	<path style="" d="M455.913,231.01h-21.864c-4.561,0-8.538,3.515-8.675,8.074c-0.141,4.717,3.641,8.585,8.326,8.585
		h21.864c4.561,0,8.538-3.515,8.675-8.074C464.38,234.877,460.598,231.01,455.913,231.01z" fill="#bababa" data-original="#bababa"></path>
	<path style="" d="M256,314.307h66.289c4.561,0,8.539-3.515,8.675-8.074c0.141-4.717-3.641-8.585-8.326-8.585h-66.289
		c-4.561,0-8.539,3.515-8.675,8.074C247.534,310.44,251.315,314.307,256,314.307z" fill="#bababa" data-original="#bababa"></path>
	<path style="" d="M455.913,297.648h-88.502c-4.561,0-8.539,3.515-8.675,8.074c-0.141,4.717,3.641,8.585,8.326,8.585
		h88.502c4.561,0,8.538-3.515,8.675-8.074C464.38,301.515,460.598,297.648,455.913,297.648z" fill="#bababa" data-original="#bababa"></path>
	<path style="" d="M455.913,364.286H256.349c-4.561,0-8.539,3.515-8.675,8.074c-0.141,4.717,3.641,8.585,8.326,8.585
		h199.564c4.561,0,8.538-3.515,8.675-8.074C464.38,368.153,460.598,364.286,455.913,364.286z" fill="#bababa" data-original="#bababa"></path>
</g>
<g>
</g>
<g>
</g>
<g>
</g>
<g>
</g>
<g>
</g>
<g>
</g>
<g>
</g>
<g>
</g>
<g>
</g>
<g>
</g>
<g>
</g>
<g>
</g>
<g>
</g>
<g>
</g>
<g>
</g>
</g></svg>