<svg xmlns="http://www.w3.org/2000/svg" version="1.1" xmlns:xlink="http://www.w3.org/1999/xlink" xmlns:svgjs="http://svgjs.com/svgjs" width="512" height="512" x="0" y="0" viewBox="0 0 512.001 512.001" style="enable-background:new 0 0 512 512" xml:space="preserve" class=""><g>
<g>
	<rect x="33.874" y="44.426" style="" width="88.85" height="45.536" fill="#acabb1" data-original="#acabb1" class=""></rect>
	<rect x="389.275" y="44.426" style="" width="88.85" height="45.536" fill="#acabb1" data-original="#acabb1" class=""></rect>
</g>
<path style="" d="M455.358,104.111V30.276c0-4.453,3.61-8.063,8.063-8.063h40.517c4.453,0,8.063,3.61,8.063,8.063
	v73.835c0,4.453-3.61,8.063-8.063,8.063h-40.517C458.967,112.174,455.358,108.565,455.358,104.111z" fill="#3e3d43" data-original="#3e3d43" class=""></path>
<path style="" d="M503.937,22.213h-33.874c4.453,0,8.063,3.61,8.063,8.063v73.835c0,4.453-3.61,8.063-8.063,8.063
	h33.874c4.453,0,8.063-3.61,8.063-8.063V30.276C512,25.823,508.39,22.213,503.937,22.213z" fill="#2e2d30" data-original="#2e2d30"></path>
<path style="" d="M0.555,104.111V30.276c0-4.454,3.61-8.063,8.063-8.063h40.516c4.453,0,8.063,3.61,8.063,8.063v73.835
	c0,4.453-3.61,8.063-8.063,8.063H8.618C4.165,112.174,0.555,108.565,0.555,104.111z" fill="#3e3d43" data-original="#3e3d43" class=""></path>
<path style="" d="M47.552,512.001C21.332,512.001,0,490.669,0,464.449V225.253c0-26.22,21.332-47.552,47.552-47.552
	h416.896c26.221,0,47.553,21.332,47.553,47.552v239.195c0,26.221-21.332,47.553-47.552,47.553H47.552z" fill="#acabb1" data-original="#acabb1" class=""></path>
<path style="" d="M464.448,177.701h-34.435c26.22,0,47.552,21.332,47.552,47.552v239.195
	c0,26.22-21.332,47.552-47.552,47.552h34.435c26.22,0.001,47.552-21.331,47.552-47.551V225.253
	C512,199.033,490.668,177.701,464.448,177.701z" fill="#898790" data-original="#898790"></path>
<path style="" d="M99.957,211.575V20.3c0-11.193,9.106-20.299,20.3-20.299h271.487c11.194,0,20.3,9.106,20.3,20.299
	v191.276H99.957z" fill="#ece5dd" data-original="#ece5dd" class=""></path>
<path style="" d="M391.743,0.001H359.87c11.194,0,20.3,9.106,20.3,20.299v191.276h31.873V20.3
	C412.043,9.107,402.937,0.001,391.743,0.001z" fill="#d9cbbd" data-original="#d9cbbd"></path>
<path style="" d="M85.543,256.556c-16.548,0-30.011-13.463-30.011-30.01v-63.258c0-16.548,13.463-30.011,30.011-30.011
	h340.914c16.548,0,30.011,13.463,30.011,30.01v63.258c0,16.548-13.463,30.011-30.011,30.011H85.543z" fill="#3e3d43" data-original="#3e3d43" class=""></path>
<path style="" d="M426.457,133.276h-34.435c16.548,0,30.011,13.463,30.011,30.01v63.258
	c0,16.547-13.463,30.01-30.011,30.01h34.435c16.548,0,30.011-13.463,30.011-30.01v-63.258
	C456.469,146.739,443.005,133.276,426.457,133.276z" fill="#2e2d30" data-original="#2e2d30"></path>
<path style="" d="M99.957,457.61v-6.956c0-9.056-7.341-16.397-16.397-16.397H54.391c-5.504,0-9.966-4.461-9.966-9.966
	V298.73c0-5.504,4.461-9.966,9.966-9.966h403.218c5.504,0,9.966,4.461,9.966,9.966v125.561c0,5.504-4.461,9.966-9.966,9.966h-29.168
	c-9.056,0-16.397,7.341-16.397,16.397v6.956c0,5.504-4.461,9.966-9.966,9.966H109.922C104.418,467.575,99.957,463.114,99.957,457.61
	z" fill="#ece5dd" data-original="#ece5dd" class=""></path>
<g>
	<path style="" d="M122.725,322.083c12.555,0,22.768,10.213,22.768,22.768s-10.213,22.768-22.768,22.768
		s-22.768-10.213-22.768-22.768S110.17,322.083,122.725,322.083z" fill="#3e3d43" data-original="#3e3d43" class=""></path>
	<path style="" d="M167.705,389.276c12.555,0,22.768,10.213,22.768,22.768s-10.213,22.768-22.768,22.768
		s-22.768-10.213-22.768-22.768S155.15,389.276,167.705,389.276z" fill="#3e3d43" data-original="#3e3d43" class=""></path>
	<path style="" d="M256.555,389.276c12.555,0,22.768,10.213,22.768,22.768s-10.213,22.768-22.768,22.768
		c-12.555,0-22.768-10.213-22.768-22.768S244.001,389.276,256.555,389.276z" fill="#3e3d43" data-original="#3e3d43" class=""></path>
	<path style="" d="M345.406,389.276c12.555,0,22.768,10.213,22.768,22.768s-10.213,22.768-22.768,22.768
		s-22.768-10.213-22.768-22.768S332.851,389.276,345.406,389.276z" fill="#3e3d43" data-original="#3e3d43" class=""></path>
	<path style="" d="M212.13,322.083c12.555,0,22.768,10.213,22.768,22.768s-10.213,22.768-22.768,22.768
		s-22.768-10.213-22.768-22.768S199.576,322.083,212.13,322.083z" fill="#3e3d43" data-original="#3e3d43" class=""></path>
	<path style="" d="M300.98,322.083c12.555,0,22.768,10.213,22.768,22.768s-10.213,22.768-22.768,22.768
		s-22.768-10.213-22.768-22.768S288.426,322.083,300.98,322.083z" fill="#3e3d43" data-original="#3e3d43" class=""></path>
	<path style="" d="M389.831,322.083c12.555,0,22.768,10.213,22.768,22.768s-10.213,22.768-22.768,22.768
		s-22.768-10.213-22.768-22.768S377.276,322.083,389.831,322.083z" fill="#3e3d43" data-original="#3e3d43" class=""></path>
</g>
<g>
	<path style="" d="M122.725,322.083c-4.092,0-7.923,1.099-11.245,2.996c6.871,3.924,11.523,11.308,11.523,19.771
		s-4.651,15.849-11.523,19.771c3.322,1.897,7.154,2.996,11.245,2.996c12.555,0,22.768-10.213,22.768-22.768
		S135.279,322.083,122.725,322.083z" fill="#2e2d30" data-original="#2e2d30"></path>
	<path style="" d="M167.705,389.276c-4.092,0-7.923,1.099-11.245,2.996c6.871,3.924,11.523,11.308,11.523,19.771
		s-4.651,15.849-11.523,19.771c3.322,1.897,7.154,2.996,11.245,2.996c12.555,0,22.768-10.213,22.768-22.768
		S180.26,389.276,167.705,389.276z" fill="#2e2d30" data-original="#2e2d30"></path>
	<path style="" d="M256.555,389.276c-4.092,0-7.923,1.099-11.245,2.996c6.871,3.924,11.523,11.308,11.523,19.771
		s-4.651,15.849-11.523,19.771c3.322,1.897,7.154,2.996,11.245,2.996c12.555,0,22.768-10.213,22.768-22.768
		S269.11,389.276,256.555,389.276z" fill="#2e2d30" data-original="#2e2d30"></path>
	<path style="" d="M345.406,389.276c-4.092,0-7.923,1.099-11.245,2.996c6.871,3.924,11.523,11.308,11.523,19.771
		s-4.651,15.849-11.523,19.771c3.322,1.897,7.154,2.996,11.245,2.996c12.555,0,22.768-10.213,22.768-22.768
		S357.96,389.276,345.406,389.276z" fill="#2e2d30" data-original="#2e2d30"></path>
	<path style="" d="M212.13,322.083c-4.092,0-7.923,1.099-11.245,2.996c6.871,3.924,11.523,11.308,11.523,19.771
		s-4.651,15.849-11.523,19.771c3.322,1.897,7.154,2.996,11.245,2.996c12.555,0,22.768-10.213,22.768-22.768
		S224.685,322.083,212.13,322.083z" fill="#2e2d30" data-original="#2e2d30"></path>
	<path style="" d="M300.98,322.083c-4.092,0-7.923,1.099-11.245,2.996c6.871,3.924,11.523,11.308,11.523,19.771
		s-4.651,15.849-11.523,19.771c3.322,1.897,7.154,2.996,11.245,2.996c12.555,0,22.768-10.213,22.768-22.768
		S313.535,322.083,300.98,322.083z" fill="#2e2d30" data-original="#2e2d30"></path>
	<path style="" d="M389.831,322.083c-4.092,0-7.923,1.099-11.245,2.996c6.871,3.924,11.523,11.308,11.523,19.771
		s-4.651,15.849-11.523,19.771c3.322,1.897,7.154,2.996,11.245,2.996c12.555,0,22.768-10.213,22.768-22.768
		S402.385,322.083,389.831,322.083z" fill="#2e2d30" data-original="#2e2d30"></path>
</g>
<path style="" d="M291.642,150.281L256,132.098l127.231,1.178l-5.887,12.638c-4.578,9.826-10.381,19.108-17.249,27.589
	l-4.288,5.295L291.642,150.281z" fill="#898790" data-original="#898790"></path>
<path style="" d="M256,132.098l101.061,46.041l-9.851,9.162c-8.821,8.204-18.733,15.197-29.458,20.784l-6.848,3.567
	L256,132.098z" fill="#77767f" data-original="#77767f"></path>
<path style="" d="M256,132.098l56.107,79.328l-11.063,3.965c-11.658,4.178-23.811,6.714-36.122,7.537l-9.477,0.633
	L256,132.098z" fill="#57565c" data-original="#57565c"></path>
<path style="" d="M247.078,222.928c-12.311-0.823-24.464-3.359-36.122-7.537l-11.063-3.965L256,132.099l0.555,91.464
	L247.078,222.928z" fill="#3e3d43" data-original="#3e3d43" class=""></path>
<path style="" d="M194.248,208.085c-10.725-5.588-20.638-12.58-29.458-20.784l-9.851-9.162l101.061-46.041
	l-54.904,79.554L194.248,208.085z" fill="#2e2d30" data-original="#2e2d30"></path>
<path style="" d="M151.905,173.503c-6.868-8.481-12.671-17.763-17.249-27.589l-5.887-12.638L256,132.098
	l-35.642,18.182l-64.164,28.518L151.905,173.503z" fill="#1d1d20" data-original="#1d1d20"></path>
<g>
	<path style="" d="M144.937,53.311h144.382c4.6,0,8.33-3.728,8.33-8.33s-3.729-8.33-8.33-8.33H144.937
		c-4.6,0-8.33,3.728-8.33,8.33S140.337,53.311,144.937,53.311z" fill="#bababa" data-original="#bababa"></path>
	<path style="" d="M367.063,36.651h-44.425c-4.6,0-8.33,3.728-8.33,8.33s3.729,8.33,8.33,8.33h44.425
		c4.6,0,8.33-3.728,8.33-8.33S371.663,36.651,367.063,36.651z" fill="#bababa" data-original="#bababa"></path>
	<path style="" d="M167.15,81.076h-22.213c-4.6,0-8.33,3.728-8.33,8.33c0,4.601,3.729,8.33,8.33,8.33h22.213
		c4.6,0,8.33-3.728,8.33-8.33C175.479,84.805,171.75,81.076,167.15,81.076z" fill="#bababa" data-original="#bababa"></path>
	<path style="" d="M367.063,81.076H200.469c-4.6,0-8.33,3.728-8.33,8.33c0,4.601,3.73,8.33,8.33,8.33h166.594
		c4.6,0,8.33-3.728,8.33-8.33C375.393,84.805,371.663,81.076,367.063,81.076z" fill="#bababa" data-original="#bababa"></path>
</g>
<g>
</g>
<g>
</g>
<g>
</g>
<g>
</g>
<g>
</g>
<g>
</g>
<g>
</g>
<g>
</g>
<g>
</g>
<g>
</g>
<g>
</g>
<g>
</g>
<g>
</g>
<g>
</g>
<g>
</g>
</g></svg>