<svg xmlns="http://www.w3.org/2000/svg" version="1.1" xmlns:xlink="http://www.w3.org/1999/xlink" xmlns:svgjs="http://svgjs.com/svgjs" width="512" height="512" x="0" y="0" viewBox="0 0 512 512" style="enable-background:new 0 0 512 512" xml:space="preserve" class=""><g>
<path style="" d="M484.529,255.791h-29.717l-332.185,0.555v255.1L455.399,512c0.305,0,0.611-0.002,0.925-0.007
	c30.356-0.507,55.054-26.039,55.054-56.915V282.64C511.378,267.836,499.333,255.791,484.529,255.791z" fill="#ed8800" data-original="#ed8800"></path>
<path style="" d="M484.529,255.791h-29.717l-3.858,0.007c14.687,0.138,26.595,12.123,26.595,26.843v172.436
	c0,30.877-24.7,56.365-55.056,56.871c-0.314,0.004,32.906,0.051,32.906,0.051c0.305,0,0.611-0.002,0.925-0.007
	c30.356-0.507,55.054-26.039,55.054-56.915V282.64C511.378,267.836,499.333,255.791,484.529,255.791z" fill="#cc7400" data-original="#cc7400"></path>
<path style="" d="M345.008,0.691H84.481c-15.967,0-28.957,12.99-28.957,28.957V168.17v265.637l343.831,0.555h36.376
	c11.132,0,20.19-9.057,20.19-20.19V100.513L345.008,0.691z" fill="#ece5dd" data-original="#ece5dd"></path>
<path style="" d="M422.202,70.166l0.048,30.346v313.66c0,11.132-9.057,20.19-20.19,20.19h33.67
	c11.132,0,20.19-9.057,20.19-20.19V100.513L422.202,70.166z" fill="#d9cbbd" data-original="#d9cbbd" class=""></path>
<path style="" d="M66.644,511.447c-36.405,0-66.022-29.618-66.022-66.022V217.908
	c0-28.343,23.059-51.402,51.402-51.402h67.754c9.472,0,18.763,3.259,26.16,9.176l26.66,21.328
	c11.173,8.939,25.207,13.862,39.515,13.862h156.835c17.684,0,32.072,14.388,32.072,32.072v212.492
	c0,14.838,5.827,28.741,16.409,39.146c0.5,0.492,1.008,0.974,1.523,1.443l16.868,15.943L66.644,511.447z" fill="#ffb656" data-original="#ffb656"></path>
<path style="" d="M418.95,496.024c-0.515-0.469-1.023-0.951-1.523-1.443c-10.581-10.405-16.409-24.308-16.409-39.146
	V242.943c0-17.684-14.388-32.072-32.072-32.072h-33.274c17.684,0,32.072,14.388,32.072,32.072v212.492
	c0,14.838,5.827,28.741,16.409,39.146c0.5,0.492,1.008,0.974,1.523,1.443l16.868,15.421l33.274,0.521L418.95,496.024z" fill="#ffa733" data-original="#ffa733"></path>
<g>
	<path style="" d="M122.627,87.203H233.54c4.594,0,8.318-3.724,8.318-8.318s-3.724-8.318-8.318-8.318H122.627
		c-4.594,0-8.318,3.724-8.318,8.318S118.033,87.203,122.627,87.203z" fill="#bababa" data-original="#bababa" class=""></path>
	<path style="" d="M277.905,87.203h22.183c4.595,0,8.319-3.724,8.319-8.318s-3.723-8.318-8.319-8.318h-22.183
		c-4.595,0-8.318,3.724-8.318,8.318S273.31,87.203,277.905,87.203z" fill="#bababa" data-original="#bababa" class=""></path>
	<path style="" d="M122.627,131.569h88.731c4.594,0,8.318-3.724,8.318-8.318s-3.724-8.318-8.318-8.318h-88.731
		c-4.594,0-8.318,3.724-8.318,8.318S118.033,131.569,122.627,131.569z" fill="#bababa" data-original="#bababa" class=""></path>
	<path style="" d="M255.723,131.569h66.548c4.595,0,8.318-3.724,8.318-8.318s-3.723-8.318-8.318-8.318h-66.548
		c-4.594,0-8.318,3.724-8.318,8.318S251.129,131.569,255.723,131.569z" fill="#bababa" data-original="#bababa" class=""></path>
</g>
<path style="" d="M366.272,101.622c-12.337,0-22.373-10.037-22.373-22.373V0l112.913,101.622H366.272z" fill="#c0ab91" data-original="#c0ab91" class=""></path>
<g>
</g>
<g>
</g>
<g>
</g>
<g>
</g>
<g>
</g>
<g>
</g>
<g>
</g>
<g>
</g>
<g>
</g>
<g>
</g>
<g>
</g>
<g>
</g>
<g>
</g>
<g>
</g>
<g>
</g>
</g></svg>